<svg width="36" height="36" viewBox="0 0 36 36" fill="none" xmlns="http://www.w3.org/2000/svg">
<path d="M24.54 21C24.66 20.01 24.75 19.02 24.75 18C24.75 16.98 24.66 15.99 24.54 15H29.61C29.85 15.96 30 16.965 30 18C30 19.035 29.85 20.04 29.61 21M21.885 29.34C22.785 27.675 23.475 25.875 23.955 24H28.38C26.9268 26.5024 24.6212 28.398 21.885 29.34ZM21.51 21H14.49C14.34 20.01 14.25 19.02 14.25 18C14.25 16.98 14.34 15.975 14.49 15H21.51C21.645 15.975 21.75 16.98 21.75 18C21.75 19.02 21.645 20.01 21.51 21ZM18 29.94C16.755 28.14 15.75 26.145 15.135 24H20.865C20.25 26.145 19.245 28.14 18 29.94ZM12 12H7.62C9.05796 9.49055 11.362 7.59186 14.1 6.66C13.2 8.325 12.525 10.125 12 12ZM7.62 24H12C12.525 25.875 13.2 27.675 14.1 29.34C11.3674 28.3985 9.06643 26.5023 7.62 24ZM6.39 21C6.15 20.04 6 19.035 6 18C6 16.965 6.15 15.96 6.39 15H11.46C11.34 15.99 11.25 16.98 11.25 18C11.25 19.02 11.34 20.01 11.46 21M18 6.045C19.245 7.845 20.25 9.855 20.865 12H15.135C15.75 9.855 16.755 7.845 18 6.045ZM28.38 12H23.955C23.4848 10.1424 22.7897 8.34916 21.885 6.66C24.645 7.605 26.94 9.51 28.38 12ZM18 3C9.705 3 3 9.75 3 18C3 21.9782 4.58035 25.7936 7.3934 28.6066C8.78628 29.9995 10.4399 31.1044 12.2597 31.8582C14.0796 32.612 16.0302 33 18 33C21.9782 33 25.7936 31.4196 28.6066 28.6066C31.4196 25.7936 33 21.9782 33 18C33 16.0302 32.612 14.0796 31.8582 12.2597C31.1044 10.4399 29.9995 8.78628 28.6066 7.3934C27.2137 6.00052 25.5601 4.89563 23.7403 4.14181C21.9204 3.38799 19.9698 3 18 3Z" fill="#FF0100"/>
<path d="M19 23H20C20.2833 23 20.521 23.096 20.713 23.288C20.905 23.48 21.0007 23.7173 21 24C20.9993 24.2827 20.9033 24.5203 20.712 24.713C20.5207 24.9057 20.2833 25.0013 20 25H19C18.7167 25 18.4793 24.904 18.288 24.712C18.0967 24.52 18.0007 24.2827 18 24C17.9993 23.7173 18.0953 23.48 18.288 23.288C18.4807 23.096 18.718 23 19 23ZM20.7 28.4L21.4 27.7C21.6 27.5 21.8333 27.4043 22.1 27.413C22.3667 27.4217 22.6 27.5173 22.8 27.7C23 27.9 23.1043 28.1377 23.113 28.413C23.1217 28.6883 23.0257 28.9257 22.825 29.125L22.125 29.825C21.925 30.025 21.6877 30.121 21.413 30.113C21.1383 30.105 20.9007 30.0007 20.7 29.8C20.5167 29.6 20.4207 29.3667 20.412 29.1C20.4033 28.8333 20.4993 28.6 20.7 28.4ZM21.4 20.3L20.7 19.6C20.5 19.4 20.404 19.1667 20.412 18.9C20.42 18.6333 20.516 18.4 20.7 18.2C20.9 18 21.1377 17.896 21.413 17.888C21.6883 17.88 21.9257 17.9757 22.125 18.175L22.825 18.875C23.025 19.075 23.121 19.3127 23.113 19.588C23.105 19.8633 23.0007 20.1007 22.8 20.3C22.6 20.4833 22.3667 20.5793 22.1 20.588C21.8333 20.5967 21.6 20.5007 21.4 20.3ZM33.3 32.3L29.25 28.25L28.5 30.5C28.4667 30.6167 28.4043 30.7043 28.313 30.763C28.2217 30.8217 28.1257 30.8507 28.025 30.85C27.9243 30.8493 27.8283 30.816 27.737 30.75C27.6457 30.684 27.5833 30.5923 27.55 30.475L25.4 23.325C25.3667 23.1917 25.371 23.0583 25.413 22.925C25.455 22.7917 25.5173 22.6833 25.6 22.6C25.6827 22.5167 25.791 22.4543 25.925 22.413C26.059 22.3717 26.1923 22.3673 26.325 22.4L33.525 24.55C33.6417 24.5833 33.7293 24.646 33.788 24.738C33.8467 24.83 33.8757 24.9257 33.875 25.025C33.8743 25.1243 33.8493 25.2203 33.8 25.313C33.7507 25.4057 33.6673 25.468 33.55 25.5L31.3 26.3L35.3 30.3C35.5 30.5 35.6 30.7333 35.6 31C35.6 31.2667 35.5 31.5 35.3 31.7L34.7 32.3C34.5 32.5 34.2667 32.6 34 32.6C33.7333 32.6 33.5 32.5 33.3 32.3ZM26 18V17C26 16.7167 26.096 16.4793 26.288 16.288C26.48 16.0967 26.7173 16.0007 27 16C27.2827 15.9993 27.5203 16.0953 27.713 16.288C27.9057 16.4807 28.0013 16.718 28 17V18C28 18.2833 27.904 18.521 27.712 18.713C27.52 18.905 27.2827 19.0007 27 19C26.7173 18.9993 26.48 18.9033 26.288 18.712C26.096 18.5207 26 18.2833 26 18ZM31.175 18.875L31.9 18.15C32.0833 17.9667 32.3127 17.8707 32.588 17.862C32.8633 17.8533 33.1007 17.9493 33.3 18.15C33.4833 18.3333 33.5793 18.5627 33.588 18.838C33.5967 19.1133 33.509 19.3507 33.325 19.55L32.6 20.3C32.4167 20.5 32.1873 20.596 31.912 20.588C31.6367 20.58 31.3993 20.484 31.2 20.3C31 20.1 30.896 19.8627 30.888 19.588C30.88 19.3133 30.9757 19.0757 31.175 18.875Z" fill="#131313"/>
</svg>
