<svg width="25" height="25" viewBox="0 0 25 25" fill="none" xmlns="http://www.w3.org/2000/svg">
<path d="M19.7917 4.16667H15.4375C15.2242 3.55776 14.827 3.03017 14.3007 2.6569C13.7744 2.28363 13.1452 2.08313 12.5 2.08313C11.8548 2.08313 11.2256 2.28363 10.6993 2.6569C10.173 3.03017 9.77579 3.55776 9.5625 4.16667H5.20833C4.65631 4.16832 4.12736 4.38835 3.73702 4.77869C3.34667 5.16903 3.12665 5.69798 3.125 6.25001V20.8333C3.12665 21.3854 3.34667 21.9143 3.73702 22.3047C4.12736 22.695 4.65631 22.915 5.20833 22.9167H19.7917C20.3437 22.915 20.8726 22.695 21.263 22.3047C21.6533 21.9143 21.8734 21.3854 21.875 20.8333V6.25001C21.8734 5.69798 21.6533 5.16903 21.263 4.77869C20.8726 4.38835 20.3437 4.16832 19.7917 4.16667ZM12.5 4.16667C12.706 4.16667 12.9074 4.22777 13.0787 4.34223C13.25 4.45669 13.3835 4.61937 13.4624 4.80971C13.5412 5.00005 13.5618 5.2095 13.5217 5.41156C13.4815 5.61362 13.3822 5.79923 13.2366 5.94491C13.0909 6.09059 12.9053 6.1898 12.7032 6.22999C12.5012 6.27018 12.2917 6.24956 12.1014 6.17072C11.911 6.09187 11.7483 5.95836 11.6339 5.78706C11.5194 5.61576 11.4583 5.41436 11.4583 5.20834C11.4592 4.93233 11.5692 4.66785 11.7643 4.47268C11.9595 4.27751 12.224 4.1675 12.5 4.16667ZM10.4167 9.37501L13.3229 12.2854L15.9479 9.66042L14.5833 8.33334H18.75V12.5L17.4208 11.1344L13.325 15.2333L10.4167 12.3229L7.72292 15.0146L6.25 13.5417L10.4167 9.37501ZM19.7917 19.7917H5.20833V17.7083H19.7917V19.7917Z" fill="white"/>
</svg>
