<svg width="25" height="25" viewBox="0 0 25 25" fill="none" xmlns="http://www.w3.org/2000/svg">
<g clip-path="url(#clip0_54_489)">
<path d="M2.08334 12.5C2.08334 13.5958 2.27084 14.6479 2.61668 15.625M2.61668 15.625H11.4583M2.61668 15.625C3.26307 17.4533 4.4605 19.0361 6.04401 20.1555C7.62751 21.2748 9.51916 21.8756 11.4583 21.875C9.85001 21.875 8.52501 18.2291 8.35209 13.5416M13.5563 9.37498H22.3979M22.3979 9.37498C21.7515 7.5467 20.5541 5.96385 18.9706 4.84451C17.3871 3.72516 15.4954 3.12439 13.5563 3.12498C15.2229 3.12498 16.5865 7.04373 16.6761 11.9791M22.3979 9.37498C22.6875 10.1969 22.8667 11.0708 22.9167 11.9791M2.08334 5.51769C2.08334 4.37498 2.08334 3.80206 2.27814 3.35831C2.48647 2.88748 2.84272 2.50935 3.28647 2.2906C3.70522 2.08331 4.2448 2.08331 5.32293 2.08331H6.25001C8.21459 2.08331 9.19584 2.08331 9.80626 2.72915C10.4167 3.3781 10.4167 4.41665 10.4167 6.49998V8.8531C10.4167 9.7604 10.4167 10.2146 10.1417 10.3708C9.86668 10.5271 9.51043 10.275 8.79793 9.77081L8.68855 9.69477C8.16772 9.32602 7.9073 9.14269 7.61147 9.0479C7.31668 8.9531 7.00314 8.9531 6.37709 8.9531H5.32501C4.2448 8.9531 3.70522 8.9531 3.28647 8.74581C2.83524 8.51958 2.47821 8.14152 2.27814 7.6781C2.08334 7.23435 2.08334 6.66248 2.08334 5.51769ZM22.9167 18.0177C22.9167 16.8739 22.9167 16.3021 22.7219 15.8583C22.5218 15.3949 22.1648 15.0168 21.7136 14.7906C21.2948 14.5833 20.7552 14.5833 19.6771 14.5833H18.75C16.7854 14.5833 15.8042 14.5833 15.1938 15.2291C14.5833 15.8781 14.5833 16.9166 14.5833 19V21.3531C14.5833 22.2604 14.5833 22.7146 14.8583 22.8708C15.1333 23.0271 15.4896 22.775 16.2021 22.2708L16.3115 22.1948C16.8323 21.826 17.0927 21.6427 17.3886 21.5479C17.6833 21.4531 17.9969 21.4531 18.6229 21.4531H19.675C20.7552 21.4531 21.2948 21.4531 21.7136 21.2458C22.1573 21.0271 22.5146 20.6489 22.7219 20.1781C22.9167 19.7344 22.9167 19.1625 22.9167 18.0177Z" stroke="white" stroke-width="3" stroke-linecap="round" stroke-linejoin="round"/>
</g>
<defs>
<clipPath id="clip0_54_489">
<rect width="25" height="25" fill="white"/>
</clipPath>
</defs>
</svg>
