<svg width="48" height="48" viewBox="0 0 48 48" fill="none" xmlns="http://www.w3.org/2000/svg">
<path opacity="0.3" fill-rule="evenodd" clip-rule="evenodd" d="M24 4V17C24 17.7956 24.3161 18.5587 24.8787 19.1213C25.4413 19.6839 26.2044 20 27 20H40V40C40 41.0609 39.5786 42.0783 38.8284 42.8284C38.0783 43.5786 37.0609 44 36 44H12C10.9391 44 9.92172 43.5786 9.17157 42.8284C8.42143 42.0783 8 41.0609 8 40V8C8 6.93913 8.42143 5.92172 9.17157 5.17157C9.92172 4.42143 10.9391 4 12 4H24Z" fill="white"/>
<path fill-rule="evenodd" clip-rule="evenodd" d="M28 4.086C28.758 4.246 29.452 4.624 30 5.172L38.828 14C39.376 14.548 39.754 15.242 39.914 16H28V4.086ZM23.308 23.398L21.52 26.468L18.046 27.22C17.9092 27.2497 17.7825 27.3147 17.6787 27.4087C17.5749 27.5027 17.4975 27.6222 17.4544 27.7554C17.4113 27.8887 17.4039 28.0309 17.4329 28.1678C17.462 28.3048 17.5265 28.4318 17.62 28.536L19.988 31.186L19.628 34.722C19.6139 34.8613 19.6366 35.0019 19.6939 35.1297C19.7511 35.2575 19.841 35.3681 19.9543 35.4503C20.0677 35.5325 20.2007 35.5835 20.34 35.5982C20.4793 35.6129 20.6199 35.5907 20.748 35.534L24 34.102L27.252 35.534C27.38 35.5907 27.5207 35.6129 27.66 35.5982C27.7993 35.5835 27.9323 35.5325 28.0456 35.4503C28.159 35.3681 28.2488 35.2575 28.3061 35.1297C28.3634 35.0019 28.3861 34.8613 28.372 34.722L28.012 31.186L30.38 28.536C30.4735 28.4318 30.538 28.3048 30.567 28.1678C30.5961 28.0309 30.5887 27.8887 30.5456 27.7554C30.5024 27.6222 30.4251 27.5027 30.3213 27.4087C30.2175 27.3147 30.0908 27.2497 29.954 27.22L26.48 26.468L24.692 23.398C24.6217 23.2768 24.5207 23.1761 24.3993 23.1062C24.2778 23.0362 24.1401 22.9994 24 22.9994C23.8598 22.9994 23.7221 23.0362 23.6007 23.1062C23.4793 23.1761 23.3783 23.2768 23.308 23.398Z" fill="white"/>
</svg>
