<svg width="25" height="25" viewBox="0 0 25 25" fill="none" xmlns="http://www.w3.org/2000/svg">
<path d="M16.4927 2.08334H10.0792C8.49476 2.0846 6.97238 2.69927 5.83126 3.79844C4.69013 4.89762 4.01891 6.39592 3.95833 7.97917H3.125C2.9178 7.97917 2.71909 8.06148 2.57257 8.20799C2.42606 8.35451 2.34375 8.55322 2.34375 8.76042C2.34375 8.96762 2.42606 9.16634 2.57257 9.31285C2.71909 9.45936 2.9178 9.54167 3.125 9.54167H3.94792V15.4688H3.15625C2.94905 15.4688 2.75034 15.5511 2.60382 15.6976C2.45731 15.8441 2.375 16.0428 2.375 16.25C2.375 16.4572 2.45731 16.6559 2.60382 16.8024C2.75034 16.9489 2.94905 17.0313 3.15625 17.0313H3.98958C4.05151 18.6131 4.72348 20.1095 5.8646 21.2068C7.00573 22.304 8.52736 22.9168 10.1104 22.9167H16.524C17.3296 22.9168 18.1273 22.7582 18.8716 22.4499C19.6158 22.1415 20.292 21.6896 20.8616 21.1198C21.4311 20.55 21.8827 19.8735 22.1906 19.1291C22.4986 18.3847 22.6568 17.5869 22.6562 16.7813V8.21875C22.6549 7.41106 22.4943 6.61155 22.1837 5.86595C21.8732 5.12035 21.4187 4.44328 20.8462 3.87346C20.2738 3.30364 19.5947 2.85224 18.8477 2.54508C18.1006 2.23791 17.3004 2.08101 16.4927 2.08334ZM13.7021 6.17709C14.1799 6.1768 14.6518 6.28264 15.0837 6.48697C15.5155 6.6913 15.8967 6.98901 16.1995 7.35859C16.5023 7.72818 16.7192 8.16041 16.8346 8.62405C16.95 9.0877 16.9609 9.57119 16.8667 10.0396C16.7728 10.5077 16.5763 10.9493 16.2913 11.3323C16.0063 11.7154 15.6399 12.0305 15.2185 12.255C14.7971 12.4795 14.3312 12.6077 13.8542 12.6304C13.3773 12.6531 12.9013 12.5698 12.4604 12.3865C11.9705 12.1821 11.5384 11.8602 11.2026 11.449C10.8667 11.0379 10.6374 10.5504 10.5349 10.0295C10.4324 9.50863 10.46 8.97052 10.615 8.46282C10.7701 7.95512 11.0479 7.49347 11.424 7.11875C12.0289 6.51597 12.8481 6.17738 13.7021 6.17709ZM17.3469 18.2292C17.1397 18.2292 16.941 18.1469 16.7944 18.0003C16.6479 17.8538 16.5656 17.6551 16.5656 17.4479C16.5656 16.1875 14.9927 15.1042 13.7021 15.1042C12.4115 15.1042 10.85 16.1458 10.85 17.4479C10.85 17.6551 10.7677 17.8538 10.6212 18.0003C10.4747 18.1469 10.276 18.2292 10.0687 18.2292C9.86155 18.2292 9.66284 18.1469 9.51632 18.0003C9.36981 17.8538 9.2875 17.6551 9.2875 17.4479C9.2875 15.2083 11.6208 13.5417 13.7021 13.5417C15.7854 13.5417 18.1271 15.2083 18.1271 17.4479C18.1244 17.6543 18.0412 17.8514 17.8953 17.9974C17.7493 18.1433 17.5532 18.2265 17.3469 18.2292Z" fill="white"/>
<path d="M15.3687 9.39585C15.3715 9.83787 15.1986 10.2629 14.8879 10.5774C14.5773 10.8919 14.1545 11.0702 13.7125 11.0729C13.2705 11.0757 12.8454 10.9027 12.5309 10.5921C12.2164 10.2815 12.0382 9.85871 12.0354 9.41668C12.0326 8.97465 12.2056 8.54963 12.5162 8.23512C12.8268 7.9206 13.2496 7.74236 13.6917 7.7396C14.1337 7.73683 14.5587 7.90978 14.8732 8.22039C15.1877 8.53099 15.366 8.95382 15.3687 9.39585Z" fill="white"/>
</svg>
