<svg width="22" height="22" viewBox="0 0 22 22" fill="none" xmlns="http://www.w3.org/2000/svg">
<path d="M10.8954 2.10512C10.1697 2.10856 9.47705 2.17027 8.86724 2.2782C7.07114 2.59548 6.74527 3.25961 6.74527 4.48456V6.10208H10.9894V6.64125H5.15233C3.91896 6.64125 2.83889 7.38255 2.50099 8.7933C2.11118 10.4098 2.09399 11.4187 2.50099 13.1067C2.80263 14.3632 3.52313 15.2584 4.75668 15.2584H6.21607V13.3193C6.21607 11.9183 7.42796 10.6827 8.86741 10.6827H13.1067C14.2868 10.6827 15.2287 9.71094 15.2287 8.52603V4.48473C15.2287 3.33437 14.2583 2.47036 13.1067 2.27837C12.3773 2.15703 11.6208 2.10186 10.8954 2.10512ZM8.60014 3.40605C9.03842 3.40605 9.39661 3.76991 9.39661 4.21747C9.39661 4.66314 9.0386 5.02356 8.60014 5.02356C8.16014 5.02356 7.80385 4.66314 7.80385 4.21747C7.80367 3.76991 8.16014 3.40605 8.60014 3.40605Z" fill="url(#paint0_linear_58_79)"/>
<path d="M15.7578 6.64125V8.52603C15.7578 9.98697 14.519 11.2167 13.1065 11.2167H8.86721C7.70602 11.2167 6.74524 12.2107 6.74524 13.3736V17.4152C6.74524 18.5653 7.74521 19.2419 8.86721 19.5718C10.2106 19.9665 11.499 20.038 13.1065 19.5718C14.1749 19.2622 15.2285 18.6397 15.2285 17.4152V15.7975H10.9893V15.2582H17.3508C18.5842 15.2582 19.0441 14.398 19.4731 13.1065C19.9162 11.777 19.8971 10.4985 19.4731 8.79313C19.1682 7.56508 18.5861 6.64108 17.3508 6.64108L15.7578 6.64125ZM13.3734 16.8759C13.8136 16.8759 14.1699 17.2363 14.1699 17.6823C14.1699 18.1295 13.8134 18.4934 13.3734 18.4934C12.9351 18.4934 12.5771 18.1295 12.5771 17.6823C12.5771 17.2363 12.9351 16.8759 13.3734 16.8759Z" fill="url(#paint1_linear_58_79)"/>
<path opacity="0.444" d="M16.7249 20.5557C16.7249 21.1647 14.1784 21.6585 11.0374 21.6585C7.89623 21.6585 5.34973 21.1647 5.34973 20.5557C5.34973 19.9468 7.89606 19.4528 11.0374 19.4528C14.1784 19.4528 16.7249 19.9464 16.7249 20.5557Z" fill="url(#paint2_radial_58_79)"/>
<defs>
<linearGradient id="paint0_linear_58_79" x1="1.77669" y1="2.61089" x2="11.5656" y2="10.9588" gradientUnits="userSpaceOnUse">
<stop stop-color="#5A9FD4"/>
<stop offset="1" stop-color="#306998"/>
</linearGradient>
<linearGradient id="paint1_linear_58_79" x1="15.2486" y1="16.1481" x2="11.7381" y2="11.2252" gradientUnits="userSpaceOnUse">
<stop stop-color="#FFD43B"/>
<stop offset="1" stop-color="#FFE873"/>
</linearGradient>
<radialGradient id="paint2_radial_58_79" cx="0" cy="0" r="1" gradientUnits="userSpaceOnUse" gradientTransform="translate(11.0144 20.5242) rotate(-90) scale(1.10315 4.84926)">
<stop stop-color="#B8B8B8" stop-opacity="0.498"/>
<stop offset="1" stop-color="#7F7F7F" stop-opacity="0"/>
</radialGradient>
</defs>
</svg>
