<svg width="22" height="22" viewBox="0 0 22 22" fill="none" xmlns="http://www.w3.org/2000/svg">
<g clip-path="url(#clip0_58_87)">
<path d="M20.2276 16.8853C19.0291 16.8525 18.114 16.9646 17.3311 17.2942C17.1089 17.3883 16.7545 17.3903 16.7182 17.6689C16.8404 17.7971 16.8592 17.9884 16.9566 18.1462C17.1433 18.4477 17.4588 18.8531 17.7402 19.0661C18.0477 19.2978 18.3646 19.5461 18.6943 19.7469C19.2811 20.1047 19.9357 20.3089 20.4997 20.6668C20.8328 20.8782 21.1629 21.1441 21.4879 21.3825C21.6485 21.5 21.7566 21.6832 21.9645 21.7571V21.7236C21.8551 21.5841 21.8269 21.3919 21.7262 21.2463L21.2831 20.8032C20.8499 20.2285 20.3001 19.7237 19.7161 19.3047C19.2501 18.9697 18.2068 18.5178 18.0128 17.9761L17.9786 17.9419C18.3089 17.9042 18.6957 17.7848 19.0011 17.7028C19.5133 17.5658 19.9713 17.6014 20.4997 17.4644L21.2153 17.2604V17.1241C20.9481 16.8501 20.7575 16.4869 20.4661 16.2386C19.7028 15.5887 18.8703 14.9401 18.013 14.399C17.5376 14.0989 16.9501 13.9035 16.446 13.6491C16.2762 13.5639 15.9787 13.5188 15.8666 13.3765C15.6021 13.0395 15.4577 12.6118 15.2537 12.2184C14.8261 11.3946 14.4063 10.4957 14.027 9.62895C13.7685 9.03822 13.6001 8.45539 13.2778 7.92567C11.7309 5.38244 10.066 3.84708 7.48649 2.33836C6.93735 2.01747 6.27666 1.89062 5.57833 1.72476L4.45375 1.65687C4.22481 1.56148 3.98711 1.2815 3.77227 1.1452C2.91788 0.604999 0.725783 -0.569251 0.0925952 0.974874C-0.306842 1.94906 0.690205 2.8997 1.04667 3.39384C1.2971 3.73966 1.6173 4.12827 1.79588 4.51773C1.91413 4.77417 1.93424 5.03061 2.03495 5.30131C2.28211 5.9687 2.49816 6.69505 2.81853 7.31139C2.98027 7.62352 3.15884 7.95197 3.36372 8.23126C3.48867 8.40245 3.70403 8.47842 3.73841 8.74225C3.52752 9.03701 3.51549 9.4942 3.39741 9.86683C2.86494 11.546 3.06638 13.6326 3.8405 14.8747C4.0782 15.2568 4.63817 16.0744 5.40749 15.7609C6.08089 15.4863 5.9305 14.637 6.12317 13.8872C6.16683 13.7173 6.14002 13.5924 6.22527 13.4783V13.5125L6.83886 14.7385C7.29278 15.4696 8.09767 16.2336 8.78053 16.7492C9.13442 17.0165 9.41303 17.4783 9.87091 17.6347V17.6005H9.8367C9.74802 17.4622 9.60914 17.4051 9.49639 17.2944C9.22981 17.0326 8.93316 16.7076 8.71281 16.4082C8.09183 15.5657 7.5432 14.6431 7.04374 13.6831C6.80466 13.2246 6.5972 12.7191 6.39577 12.2525C6.31791 12.0725 6.31928 11.7999 6.15738 11.7073C5.9372 12.049 5.61219 12.3257 5.44169 12.7291C5.16978 13.3743 5.1342 14.1618 5.03349 14.9775C4.97367 14.999 4.99997 14.9842 4.96508 15.0117C4.49036 14.8969 4.32399 14.4088 4.1473 13.9892C3.70145 12.9298 3.61827 11.2238 4.011 10.0033C4.11241 9.68773 4.57166 8.69412 4.38569 8.40211C4.297 8.11147 4.0043 7.94286 3.8405 7.72062C3.63769 7.44597 3.43574 7.08417 3.29531 6.76655C2.93008 5.94069 2.76027 5.01291 2.37544 4.17776C2.19153 3.77833 1.8813 3.37408 1.62624 3.01967C1.3435 2.62625 1.02742 2.33612 0.808455 1.86089C0.730595 1.69176 0.625236 1.42106 0.740048 1.24798C0.777002 1.13042 0.828736 1.08144 0.944752 1.04328C1.14206 0.890828 1.69275 1.09433 1.89814 1.17958C2.4447 1.40645 2.90052 1.62267 3.36372 1.92947C3.58527 2.07642 3.81025 2.36122 4.07872 2.44045H4.38552C4.86488 2.55062 5.40199 2.47397 5.85041 2.61027C6.64258 2.85123 7.35225 3.22592 7.99678 3.63275C9.95994 4.87283 11.5659 6.63712 12.6642 8.74328C12.8407 9.08239 12.9174 9.40534 13.0731 9.76508C13.3866 10.4902 13.7821 11.2362 14.0942 11.9458C14.4063 12.6527 14.7099 13.3672 15.1509 13.9559C15.3826 14.2655 16.2769 14.4313 16.6837 14.6032C16.969 14.7233 17.4363 14.849 17.7062 15.0121C18.2218 15.323 18.7213 15.6936 19.2054 16.0339C19.4464 16.2044 20.1903 16.5784 20.2272 16.8859L20.2276 16.8853ZM4.9986 3.90534C4.74886 3.9007 4.57235 3.93216 4.38569 3.97323V4.00744H4.4192C4.53866 4.25184 4.74886 4.40962 4.8965 4.62034L5.23681 5.33603L5.27102 5.30252C5.48191 5.1535 5.5785 4.9158 5.57713 4.55262C5.49256 4.46325 5.48053 4.35256 5.40663 4.24583C5.31003 4.1042 5.12131 4.02428 4.99842 3.90551L4.9986 3.90534Z" fill="#00618A"/>
</g>
<defs>
<clipPath id="clip0_58_87">
<rect width="22" height="22" fill="white"/>
</clipPath>
</defs>
</svg>
