<svg width="22" height="18" viewBox="0 0 22 18" fill="none" xmlns="http://www.w3.org/2000/svg">
<g clip-path="url(#clip0_58_73)">
<path d="M4.56997 0C3.31478 0 2.38595 1.09863 2.42754 2.29006C2.4675 3.43465 2.4156 4.91722 2.0424 6.12618C1.66808 7.33866 1.03495 8.10671 0.000854492 8.20536V9.31868C1.03495 9.41733 1.66808 10.1854 2.0424 11.3979C2.4156 12.6069 2.4675 14.0893 2.42754 15.234C2.38595 16.4252 3.31478 17.524 4.57014 17.524H17.4317C18.6869 17.524 19.6155 16.4254 19.5739 15.234C19.534 14.0894 19.5859 12.6069 19.9591 11.3979C20.3336 10.1855 20.965 9.41724 21.9991 9.31868V8.20536C20.965 8.10671 20.3336 7.33866 19.9591 6.12618C19.5859 4.91739 19.534 3.43474 19.5739 2.29006C19.6155 1.0988 18.6869 0 17.4317 0H4.56979H4.56997ZM14.915 10.7871C14.915 12.4277 13.6913 13.4226 11.6606 13.4226H8.20364C8.10477 13.4226 8.00997 13.3833 7.94007 13.3134C7.87017 13.2435 7.83089 13.1487 7.83087 13.0498V4.47424C7.83087 4.37535 7.87015 4.2805 7.94007 4.21057C8.00999 4.14063 8.10483 4.10133 8.20372 4.1013H11.6409C13.3341 4.1013 14.4454 5.01862 14.4454 6.42685C14.4454 7.41531 13.6978 8.30023 12.7454 8.45516V8.5068C14.042 8.64902 14.915 9.54691 14.915 10.7871ZM11.2836 5.28328H9.31257V8.06744H10.9728C12.256 8.06744 12.9638 7.55065 12.9638 6.6269C12.9638 5.76132 12.3551 5.28328 11.2836 5.28328ZM9.31266 9.17217V12.2403H11.3563C12.6923 12.2403 13.4002 11.7042 13.4002 10.6966C13.4002 9.68878 12.6726 9.17199 11.2703 9.17199H9.31266V9.17217Z" fill="#7E13F8"/>
</g>
<defs>
<clipPath id="clip0_58_73">
<rect width="22" height="17.5299" fill="white"/>
</clipPath>
</defs>
</svg>
