<svg width="22" height="22" viewBox="0 0 22 22" fill="none" xmlns="http://www.w3.org/2000/svg">
<path d="M3.23365 19.6149L1.50562 0.232361H20.4944L18.7646 19.612L10.9885 21.7678L3.23365 19.6149Z" fill="#1572B6"/>
<path d="M11.0001 20.12L17.2837 18.3779L18.762 1.81708H11.0001V20.12Z" fill="#33A9DC"/>
<path d="M11.0001 8.83936H14.1458L14.363 6.4051H11.0001V4.02789H16.9611L16.904 4.66572L16.3197 11.2166H11.0001V8.83936Z" fill="white"/>
<path d="M11.0143 15.0131L11.0038 15.0162L8.35641 14.3014L8.18712 12.4054H5.80115L6.13407 16.138L11.0035 17.4895L11.0143 17.4864V15.0131Z" fill="#EBEBEB"/>
<path d="M13.9437 11.116L13.6573 14.2995L11.006 15.0152V17.4885L15.8793 16.1379L15.9151 15.7362L16.3286 11.116H13.9437Z" fill="white"/>
<path d="M11.0082 4.02789V6.4051H5.26625L5.21864 5.87091L5.11036 4.66572L5.05347 4.02789H11.0082ZM11.0002 8.83971V11.2169H8.38612L8.33851 10.6827L8.23006 9.47753L8.17334 8.83971H11.0002Z" fill="#EBEBEB"/>
</svg>
