<svg width="22" height="22" viewBox="0 0 22 22" fill="none" xmlns="http://www.w3.org/2000/svg">
<path d="M4.05763 18.7007L2.51282 1.375H19.4872L17.9403 18.6979L10.9897 20.625L4.05763 18.7007Z" fill="#E44F26"/>
<path d="M11 19.1524L16.6169 17.5952L17.9382 2.79193H11V19.1524Z" fill="#F1662A"/>
<path d="M11 9.21732H8.18812L7.99425 7.04138H11V4.91632H5.67188L5.72275 5.48695L6.24456 11.3424H11V9.21732ZM11 14.7359L10.9904 14.7386L8.624 14.0999L8.47275 12.4053H6.33944L6.63713 15.741L10.9904 16.9496L11 16.9469V14.7359Z" fill="#EBEBEB"/>
<path d="M10.9924 9.21732V11.3424H13.6091L13.3629 14.0986L10.9924 14.7379V16.9489L15.3491 15.741L15.3807 15.3821L15.8799 9.78795L15.9321 9.21732H10.9924ZM10.9924 4.91632V7.04138H16.1253L16.1679 6.56426L16.2649 5.48695L16.3157 4.91632H10.9924Z" fill="white"/>
</svg>
