<svg width="22" height="22" viewBox="0 0 22 22" fill="none" xmlns="http://www.w3.org/2000/svg">
<path d="M0 0H22V22H0V0Z" fill="#F7DF1E"/>
<path d="M5.78463 18.3848L7.46815 17.3659C7.79299 17.9418 8.08844 18.429 8.79717 18.429C9.47651 18.429 9.90491 18.1633 9.90491 17.1297V10.1002H11.9723V17.1589C11.9723 19.3002 10.7171 20.2749 8.88577 20.2749C7.23191 20.2749 6.2719 19.4184 5.78455 18.3846M13.0952 18.1632L14.7786 17.1886C15.2218 17.9123 15.7977 18.4439 16.8166 18.4439C17.6733 18.4439 18.2195 18.0156 18.2195 17.4249C18.2195 16.7161 17.6584 16.4649 16.7132 16.0516L16.1965 15.8299C14.7049 15.195 13.7155 14.3975 13.7155 12.714C13.7155 11.1634 14.8968 9.9819 16.7429 9.9819C18.0572 9.9819 19.0023 10.4398 19.6816 11.6359L18.0718 12.6698C17.7173 12.0348 17.3335 11.7838 16.7428 11.7838C16.1373 11.7838 15.7533 12.1677 15.7533 12.6698C15.7533 13.29 16.1373 13.5412 17.0233 13.9251L17.5401 14.1466C19.2975 14.8998 20.2869 15.6677 20.2869 17.3954C20.2869 19.2563 18.825 20.2752 16.8609 20.2752C14.9411 20.2752 13.7006 19.3596 13.0952 18.1633" fill="black"/>
</svg>
