<svg width="22" height="22" viewBox="0 0 22 22" fill="none" xmlns="http://www.w3.org/2000/svg">
<path d="M11.5084 0.141797C11.3505 0.0513427 11.1717 0.00375366 10.9897 0.00375366C10.8078 0.00375366 10.629 0.0513427 10.4711 0.141797L1.90829 5.115C1.58258 5.29925 1.39954 5.64695 1.39954 6.01562V15.9823C1.39954 16.3506 1.60286 16.6985 1.90794 16.8829L10.4708 21.856C10.6287 21.9465 10.8075 21.9941 10.9895 21.9941C11.1715 21.9941 11.3503 21.9465 11.5082 21.856L20.071 16.8828C20.3965 16.6985 20.5794 16.3506 20.5794 15.9821V6.01562C20.5794 5.64713 20.3761 5.29942 20.071 5.115L11.5084 0.141797Z" fill="url(#paint0_linear_58_55)"/>
<path d="M20.0917 5.11499L11.4883 0.141786C11.4039 0.0986714 11.3153 0.0644006 11.2238 0.0395203L1.58301 16.6371C1.66287 16.7351 1.75926 16.8182 1.8678 16.8829L10.4714 21.856C10.7154 21.9991 11 22.0402 11.2646 21.9582L20.3155 5.29924C20.2561 5.22141 20.1795 5.15836 20.0917 5.11499Z" fill="url(#paint1_linear_58_55)"/>
<path d="M20.0918 16.8824C20.3359 16.7393 20.5189 16.4937 20.6002 16.2276L11.1832 0.0185765C10.9391 -0.0223298 10.6746 -0.00187667 10.451 0.141467L1.90845 5.09422L11.122 21.999C11.244 21.9784 11.3867 21.9375 11.5087 21.8761L20.0918 16.8824Z" fill="url(#paint2_linear_58_55)"/>
<defs>
<linearGradient id="paint0_linear_58_55" x1="14.4768" y1="3.84528" x2="6.65673" y2="19.6991" gradientUnits="userSpaceOnUse">
<stop stop-color="#3F873F"/>
<stop offset="0.33" stop-color="#3F8B3D"/>
<stop offset="0.637" stop-color="#3E9638"/>
<stop offset="0.934" stop-color="#3DA92E"/>
<stop offset="1" stop-color="#3DAE2B"/>
</linearGradient>
<linearGradient id="paint1_linear_58_55" x1="9.68873" y1="12.1629" x2="31.5075" y2="-3.85891" gradientUnits="userSpaceOnUse">
<stop offset="0.138" stop-color="#3F873F"/>
<stop offset="0.402" stop-color="#52A044"/>
<stop offset="0.713" stop-color="#64B749"/>
<stop offset="0.908" stop-color="#6ABF4B"/>
</linearGradient>
<linearGradient id="paint2_linear_58_55" x1="1.08614" y1="10.9956" x2="20.8999" y2="10.9956" gradientUnits="userSpaceOnUse">
<stop offset="0.092" stop-color="#6ABF4B"/>
<stop offset="0.287" stop-color="#64B749"/>
<stop offset="0.598" stop-color="#52A044"/>
<stop offset="0.862" stop-color="#3F873F"/>
</linearGradient>
</defs>
</svg>
