<svg width="22" height="22" viewBox="0 0 22 22" fill="none" xmlns="http://www.w3.org/2000/svg">
<path d="M11 12.9594C12.0822 12.9594 12.9594 12.0821 12.9594 11C12.9594 9.91786 12.0822 9.04062 11 9.04062C9.91789 9.04062 9.04065 9.91786 9.04065 11C9.04065 12.0821 9.91789 12.9594 11 12.9594Z" fill="#61DAFB"/>
<path d="M18.4422 7.76874C18.064 7.63124 17.6687 7.49374 17.2562 7.37343C17.3594 6.96093 17.4453 6.54843 17.514 6.15312C17.875 3.88437 17.4797 2.28593 16.3797 1.66718C16.0531 1.47812 15.6922 1.39218 15.2797 1.39218C14.0765 1.39218 12.5469 2.28593 11 3.78124C9.4531 2.28593 7.92341 1.39218 6.72029 1.39218C6.30779 1.39218 5.94685 1.47812 5.62029 1.66718C4.52029 2.30312 4.12498 3.90156 4.48591 6.15312C4.55466 6.54843 4.6406 6.96093 4.74373 7.37343C4.33123 7.49374 3.93591 7.61406 3.55779 7.76874C1.40935 8.59374 0.240601 9.72812 0.240601 11C0.240601 12.2719 1.42654 13.4062 3.55779 14.2312C3.93591 14.3687 4.33123 14.5062 4.74373 14.6266C4.6406 15.0391 4.55466 15.4516 4.48591 15.8469C4.12498 18.1156 4.52029 19.7141 5.62029 20.3328C5.94685 20.5219 6.30779 20.6078 6.72029 20.6078C7.9406 20.6078 9.47029 19.7141 11 18.2187C12.5469 19.7141 14.0765 20.6078 15.2797 20.6078C15.6922 20.6078 16.0531 20.5219 16.3797 20.3328C17.4797 19.6969 17.875 18.0984 17.514 15.8469C17.4453 15.4516 17.3594 15.0391 17.2562 14.6266C17.6687 14.5062 18.064 14.3859 18.4422 14.2312C20.5906 13.4062 21.7593 12.2719 21.7593 11C21.7593 9.72812 20.5906 8.59374 18.4422 7.76874ZM15.8984 2.52656C16.6031 2.93906 16.8437 4.21093 16.5515 6.01562C16.5 6.37656 16.414 6.75468 16.3109 7.14999C15.4172 6.94374 14.4719 6.80624 13.475 6.72031C12.8906 5.89531 12.289 5.15624 11.6875 4.48593C12.9594 3.23124 14.2484 2.37187 15.2969 2.37187C15.5203 2.37187 15.7265 2.42343 15.8984 2.52656ZM13.9734 12.7187C13.664 13.2687 13.3031 13.8187 12.925 14.3687C12.289 14.4203 11.6531 14.4375 11 14.4375C10.3297 14.4375 9.69373 14.4203 9.07498 14.3687C8.69685 13.8187 8.3531 13.2687 8.04373 12.7187C7.71716 12.1516 7.40779 11.5672 7.13279 11C7.40779 10.4328 7.71716 9.84843 8.04373 9.28124C8.3531 8.73124 8.71404 8.18124 9.09216 7.63124C9.7281 7.57968 10.364 7.56249 11.0172 7.56249C11.6875 7.56249 12.3234 7.57968 12.9422 7.63124C13.3203 8.18124 13.664 8.73124 13.9734 9.28124C14.3 9.84843 14.6094 10.4328 14.8843 11C14.5922 11.5672 14.3 12.1344 13.9734 12.7187ZM15.4 12.1516C15.6578 12.7531 15.864 13.3375 16.0531 13.9219C15.4687 14.0594 14.85 14.1625 14.1968 14.2484C14.4031 13.9219 14.6265 13.5781 14.8156 13.2172C15.0218 12.8562 15.2109 12.4953 15.4 12.1516ZM11 16.8094C10.5875 16.3625 10.1922 15.8812 9.81404 15.3828C10.2093 15.4 10.6047 15.4172 11 15.4172C11.3953 15.4172 11.7906 15.4 12.1859 15.3828C11.8078 15.8812 11.4125 16.3625 11 16.8094ZM7.8031 14.2312C7.14998 14.1453 6.53123 14.0422 5.94685 13.9047C6.13591 13.3375 6.34216 12.7359 6.59998 12.1344C6.78904 12.4781 6.9781 12.8391 7.18435 13.1828C7.3906 13.5609 7.59685 13.8875 7.8031 14.2312ZM6.59998 9.84843C6.34216 9.24687 6.13591 8.66249 5.94685 8.07812C6.53123 7.94062 7.14998 7.83749 7.8031 7.75156C7.59685 8.07812 7.37341 8.42187 7.18435 8.78281C6.9781 9.14374 6.78904 9.50468 6.59998 9.84843ZM11 5.19062C11.4125 5.63749 11.8078 6.11874 12.1859 6.61718C11.7906 6.59999 11.3953 6.58281 11 6.58281C10.6047 6.58281 10.2093 6.59999 9.81404 6.61718C10.1922 6.11874 10.5875 5.63749 11 5.19062ZM14.8156 8.79999L14.1968 7.76874C14.85 7.85468 15.4687 7.95781 16.0531 8.09531C15.864 8.66249 15.6578 9.26406 15.4 9.86562C15.2109 9.50468 15.0218 9.14374 14.8156 8.79999ZM5.44841 6.01562C5.15623 4.21093 5.39685 2.93906 6.10154 2.52656C6.27341 2.42343 6.47966 2.37187 6.7031 2.37187C7.73435 2.37187 9.02341 3.21406 10.3125 4.48593C9.71091 5.13906 9.10935 5.89531 8.52497 6.72031C7.5281 6.80624 6.58279 6.96093 5.68904 7.14999C5.58591 6.75468 5.51716 6.37656 5.44841 6.01562ZM1.2031 11C1.2031 10.1922 2.18279 9.33281 3.90154 8.69687C4.24529 8.55937 4.62341 8.43906 5.00154 8.33593C5.27654 9.19531 5.62029 10.1062 6.03279 11.0172C5.62029 11.9281 5.25935 12.8219 5.00154 13.6812C2.62966 12.9937 1.2031 11.9625 1.2031 11ZM6.10154 19.4734C5.39685 19.0609 5.15623 17.7891 5.44841 15.9844C5.49998 15.6234 5.58591 15.2453 5.68904 14.85C6.58279 15.0562 7.5281 15.1937 8.52497 15.2797C9.10935 16.1047 9.71091 16.8437 10.3125 17.5141C9.0406 18.7687 7.75154 19.6281 6.7031 19.6281C6.47966 19.6281 6.27341 19.5766 6.10154 19.4734ZM16.5515 15.9844C16.8437 17.7891 16.6031 19.0609 15.8984 19.4734C15.7265 19.5766 15.5203 19.6281 15.2969 19.6281C14.2656 19.6281 12.9765 18.7859 11.6875 17.5141C12.289 16.8609 12.8906 16.1047 13.475 15.2797C14.4719 15.1937 15.4172 15.0391 16.3109 14.85C16.414 15.2453 16.4828 15.6234 16.5515 15.9844ZM18.0984 13.3031C17.7547 13.4406 17.3765 13.5609 16.9984 13.6641C16.7234 12.8047 16.3797 11.8937 15.9672 10.9828C16.3797 10.0719 16.7406 9.17812 16.9984 8.31874C19.3703 9.00624 20.7969 10.0375 20.7969 11C20.7969 11.8078 19.8 12.6672 18.0984 13.3031Z" fill="#61DAFB"/>
</svg>
