<svg width="22" height="22" viewBox="0 0 22 22" fill="none" xmlns="http://www.w3.org/2000/svg">
<path d="M9.28121 8.77251C11.825 10.2438 13.8875 9.79001 15.9225 8.49751C17.985 7.19126 19.635 4.67501 17.71 2.79126C16.7475 1.85626 13.2412 1.69126 9.98246 3.05251C6.73746 4.41376 3.67121 7.20501 3.46496 8.70376C3.03871 11.715 7.79621 12.6638 8.46996 14.52C9.14371 16.3763 8.85496 17.2425 8.19496 18.4113C7.50746 19.58 5.49996 20.6388 4.34496 19.3463C3.20371 18.04 6.64121 15.565 8.44246 14.8775C10.23 14.19 12.705 14.3275 13.5162 15.2213C14.3137 16.1013 13.42 17.6825 13.475 17.6825" stroke="#F5BDE6" stroke-width="1.5" stroke-linecap="round" stroke-linejoin="round"/>
</svg>
