<svg width="22" height="22" viewBox="0 0 22 22" fill="none" xmlns="http://www.w3.org/2000/svg">
<path d="M11.0007 4.40034C8.06734 4.40034 6.23464 5.86644 5.50073 8.79983C6.60039 7.33356 7.88412 6.78374 9.35039 7.15035C10.1876 7.359 10.7859 7.96606 11.4485 8.63878C12.5268 9.73311 13.775 11 16.5007 11C19.434 11 21.2668 9.53374 22.0007 6.59966C20.9007 8.06667 19.6175 8.61678 18.1509 8.25C17.3139 8.04117 16.7163 7.43428 16.0528 6.76156C14.9752 5.66724 13.7274 4.40034 11.0007 4.40034ZM5.50073 11C2.56751 11 0.734639 12.4663 0.000732422 15.4003C1.10062 13.9333 2.38384 13.3832 3.85039 13.75C4.68759 13.9588 5.28589 14.5657 5.94847 15.2384C7.02681 16.3328 8.27497 17.5997 11.0007 17.5997C13.934 17.5997 15.7668 16.1336 16.5007 13.2002C15.4007 14.6665 14.1175 15.2163 12.6509 14.8497C11.8139 14.641 11.2163 14.0339 10.5528 13.3612C9.47517 12.2669 8.22736 11 5.50073 11Z" fill="#38BDF8"/>
</svg>
