<svg width="22" height="22" viewBox="0 0 22 22" fill="none" xmlns="http://www.w3.org/2000/svg">
<path d="M3.89636 8.07812H21.0271V20.7402H3.89636V8.07812Z" fill="white"/>
<path d="M0.257812 10.9845V21.7267H21.7422V0.24234H0.257812V10.9845ZM17.5708 10.1252C18.0854 10.2446 18.553 10.5137 18.9148 10.8986C19.114 11.106 19.2871 11.3368 19.4305 11.5861C19.4305 11.6136 18.5023 12.2409 17.9369 12.5916C17.9163 12.6053 17.8337 12.5159 17.7427 12.3802C17.6394 12.202 17.4928 12.053 17.3163 11.9469C17.1399 11.8408 16.9395 11.7811 16.7337 11.7734C16.0823 11.7287 15.663 12.0708 15.6664 12.6328C15.6612 12.7727 15.6932 12.9115 15.7592 13.035C15.9019 13.3323 16.1683 13.5094 17.0036 13.8703C18.5419 14.532 19.2002 14.9686 19.6092 15.5891C20.0664 16.2766 20.1678 17.3869 19.8584 18.2084C19.5147 19.1022 18.6725 19.7089 17.4814 19.91C16.9374 19.9723 16.3877 19.9666 15.8452 19.8928C15.0136 19.7557 14.2475 19.3565 13.6589 18.7533C13.4613 18.535 13.0763 17.9661 13.1003 17.9248C13.1629 17.8781 13.229 17.8361 13.298 17.7994L14.0938 17.3594L14.7108 17.0019L14.8397 17.1927C15.0573 17.5038 15.3342 17.769 15.6544 17.973C16.3419 18.3339 17.2803 18.2841 17.7444 17.8664C17.9002 17.7134 17.9974 17.5105 18.0191 17.2932C18.0407 17.0759 17.9855 16.8578 17.863 16.677C17.6911 16.4381 17.3473 16.237 16.3866 15.8177C15.278 15.3398 14.8002 15.0442 14.3636 14.5733C14.0911 14.2624 13.8899 13.8958 13.7741 13.4991C13.6877 13.0457 13.6749 12.5814 13.7362 12.1241C13.9648 11.0533 14.7675 10.3056 15.9397 10.0839C16.4825 10.0168 17.0324 10.0319 17.5708 10.1286V10.1252ZM12.528 11.0258V11.9058H9.73844V19.8516H7.76016V11.9041H4.96375V11.0447C4.95498 10.7483 4.96186 10.4517 4.98438 10.1561C4.99813 10.1406 6.70312 10.1406 8.76562 10.1406H12.5177L12.528 11.0258Z" fill="#007ACC"/>
</svg>
