<svg width="40" height="40" viewBox="0 0 40 40" fill="none" xmlns="http://www.w3.org/2000/svg">
<path d="M31.1333 20.5333C30.437 19.837 29.6102 19.2849 28.7001 18.9088C27.79 18.5326 26.8146 18.3398 25.8299 18.3413C24.8451 18.3429 23.8704 18.5388 22.9615 18.9178C22.0526 19.2968 21.2274 19.8515 20.5333 20.55C19.8359 21.2452 19.2825 22.0712 18.905 22.9807C18.5274 23.8902 18.333 24.8653 18.333 25.85C18.333 26.8347 18.5274 27.8098 18.905 28.7193C19.2825 29.6288 19.8359 30.4548 20.5333 31.15C21.7353 32.3467 23.3067 33.1018 24.9921 33.2924C26.6775 33.483 28.3778 33.098 29.8167 32.2L35 37.3167L37.3167 35L32.1667 29.8167C34.05 26.8667 33.6167 23 31.1333 20.5333ZM28.7833 28.7833C27.15 30.4167 24.5167 30.4 22.8833 28.7833C21.2667 27.15 21.2667 24.5167 22.9 22.8833C24.5167 21.2667 27.15 21.2667 28.7833 22.8833C30.4 24.5167 30.4 27.15 28.7833 28.7833ZM18.1667 33.5C17.0779 32.4019 16.2368 31.0835 15.7 29.6333C10.45 28.75 6.66667 26.2667 6.66667 23.3333V28.3333C6.66667 32.0167 12.6333 35 20 35C19.3333 34.5667 18.7167 34.0667 18.1667 33.5ZM6.66667 15V20C6.66667 22.8 10.1167 25.2 15 26.1667V25.8333C15 24.2833 15.3333 22.75 15.9667 21.35C10.5667 20.5 6.66667 17.9833 6.66667 15ZM20 5C12.6333 5 6.66667 7.98333 6.66667 11.6667C6.66667 15 11.6667 17.8 18.0833 18.3333H18.1667C20.1667 16.2333 22.9333 15 25.8333 15C27.35 15 28.85 15.3167 30.2333 15.9333C31.0736 15.5492 31.8005 14.9546 32.3436 14.2071C32.8867 13.4596 33.2276 12.5845 33.3333 11.6667C33.3333 7.98333 27.3667 5 20 5Z" fill="white"/>
</svg>
