<svg width="40" height="32" viewBox="0 0 40 32" fill="none" xmlns="http://www.w3.org/2000/svg">
<path d="M19.6167 14.6733H16.5933V9.61H20.18C22.13 9.61 23.2367 10.48 23.2367 12.0533C23.2367 13.7333 21.9483 14.6733 19.6133 14.6733H19.6167ZM20.1567 16.6833H16.595V22.2633H20.3133C22.745 22.2633 24.0333 21.2883 24.0333 19.455C24.0333 17.6217 22.7083 16.6833 20.1567 16.6833ZM40 14.9233V16.9533C38.12 17.1333 36.9717 18.5267 36.29 20.7333C35.6117 22.9317 35.5183 25.6283 35.59 27.71C35.665 29.8767 33.9767 31.8767 31.695 31.8767H8.30833C6.025 31.8767 4.33667 29.8767 4.41333 27.71C4.485 25.6283 4.39167 22.9317 3.71333 20.7333C3.03 18.5267 1.88 17.1333 0 16.9533V14.9233C1.88 14.7433 3.03167 13.35 3.71167 11.1433C4.39167 8.945 4.485 6.24833 4.41167 4.16667C4.33667 2 6.025 0 8.30833 0H31.695C33.9783 0 35.665 2 35.59 4.16667C35.5183 6.24833 35.6117 8.945 36.29 11.1433C36.9717 13.35 38.12 14.7433 40 14.9233ZM26.7883 19.6183C26.7883 17.3617 25.2 15.73 22.8417 15.4717V15.3767C24.575 15.095 25.935 13.485 25.935 11.6883C25.935 9.12667 23.9133 7.45833 20.8317 7.45833H13.8983V24.4117H20.8667C24.5633 24.4117 26.7883 22.6017 26.7883 19.6183Z" fill="white"/>
</svg>
