<svg width="40" height="40" viewBox="0 0 40 40" fill="none" xmlns="http://www.w3.org/2000/svg">
<path d="M19.9999 2.66669V25.3334M19.9999 25.3334V30.6667C19.9999 31.7215 19.6871 32.7527 19.1011 33.6297C18.5151 34.5068 17.6821 35.1904 16.7076 35.594C15.733 35.9977 14.6607 36.1033 13.6261 35.8975C12.5915 35.6918 11.6412 35.1838 10.8954 34.4379C10.1495 33.692 9.64152 32.7417 9.43573 31.7072C9.22995 30.6726 9.33556 29.6002 9.73923 28.6257C10.1429 27.6512 10.8265 26.8182 11.7035 26.2322C12.5806 25.6461 13.6118 25.3334 14.6666 25.3334M19.9999 25.3334H14.6666M14.6666 25.3334C13.2521 25.3334 11.8955 24.7715 10.8954 23.7713C9.89516 22.7711 9.33325 21.4145 9.33325 20C9.33325 18.5855 9.89516 17.229 10.8954 16.2288C11.8955 15.2286 13.2521 14.6667 14.6666 14.6667M14.6666 14.6667H19.9999M14.6666 14.6667H25.3333M14.6666 14.6667C13.2521 14.6667 11.8955 14.1048 10.8954 13.1046C9.89516 12.1044 9.33325 10.7478 9.33325 9.33335C9.33325 7.91887 9.89516 6.56231 10.8954 5.56212C11.8955 4.56192 13.2521 4.00002 14.6666 4.00002H25.3333C26.7477 4.00002 28.1043 4.56192 29.1045 5.56212C30.1047 6.56231 30.6666 7.91887 30.6666 9.33335C30.6666 10.7478 30.1047 12.1044 29.1045 13.1046C28.1043 14.1048 26.7477 14.6667 25.3333 14.6667M25.3333 14.6667C26.7477 14.6667 28.1043 15.2286 29.1045 16.2288C30.1047 17.229 30.6666 18.5855 30.6666 20C30.6666 21.4145 30.1047 22.7711 29.1045 23.7713C28.1043 24.7715 26.7477 25.3334 25.3333 25.3334C23.9188 25.3334 22.5622 24.7715 21.562 23.7713C20.5618 22.7711 19.9999 21.4145 19.9999 20C19.9999 18.5855 20.5618 17.229 21.562 16.2288C22.5622 15.2286 23.9188 14.6667 25.3333 14.6667Z" stroke="white" stroke-width="2.66667"/>
</svg>
