<svg xmlns="http://www.w3.org/2000/svg" xmlns:xlink="http://www.w3.org/1999/xlink" width="60" zoomAndPan="magnify" viewBox="0 0 45 42" height="56" preserveAspectRatio="xMidYMid meet" version="1.0"><defs><clipPath id="5a205ea21c"><path d="M 1.523438 0 L 43 0 L 43 41.023438 L 1.523438 41.023438 Z M 1.523438 0 " clip-rule="nonzero"/></clipPath></defs><g clip-path="url(#5a205ea21c)"><path fill="#181924" d="M 26.875 41.023438 C 26.15625 37.085938 27.835938 32.960938 25.472656 29.199219 C 26.417969 28.898438 27.371094 28.648438 28.28125 28.300781 C 33.460938 26.304688 35.539062 20.722656 32.832031 15.902344 C 32.234375 14.835938 32.007812 13.871094 32.144531 12.65625 C 32.269531 11.550781 31.988281 10.40625 31.847656 8.832031 C 30.289062 9.464844 29.09375 10.035156 27.839844 10.433594 C 26.933594 10.71875 26.007812 10.875 25.058594 10.90625 C 23.085938 10.96875 21.085938 10.753906 19.132812 10.964844 C 17.960938 11.09375 17.046875 10.964844 16.035156 10.394531 C 14.964844 9.792969 13.761719 9.433594 12.261719 8.824219 C 12.085938 10.285156 11.742188 11.421875 11.867188 12.503906 C 12.023438 13.828125 11.726562 14.859375 11.105469 16.023438 C 8.289062 21.289062 11.109375 27.195312 17.09375 28.777344 C 17.539062 28.894531 17.996094 28.988281 18.546875 29.113281 C 18.148438 30.03125 17.851562 30.902344 17.40625 31.6875 C 16.941406 32.511719 15.359375 32.449219 14.476562 31.574219 C 13.996094 31.101562 13.65625 30.488281 13.210938 29.976562 C 12.296875 28.921875 11.269531 28.085938 9.632812 28.289062 C 9.640625 29.425781 9.453125 30.53125 10.886719 30.972656 C 11.152344 31.054688 11.390625 31.363281 11.546875 31.625 C 12.816406 33.746094 14.582031 34.914062 17.214844 34.5 L 17.214844 40.878906 C 10.121094 40.695312 2.160156 30.839844 1.875 21.871094 C 1.527344 11.007812 9.613281 1.816406 20.328125 0.890625 C 30.613281 0 40.363281 7.554688 41.859375 17.570312 C 43.460938 28.296875 36.710938 38.90625 26.875 41.023438 Z M 26.875 41.023438 " fill-opacity="1" fill-rule="nonzero"/></g></svg>