<svg width="30" height="30" viewBox="0 0 30 30" fill="none" xmlns="http://www.w3.org/2000/svg">
<path d="M0 0H30V30H0V0ZM27.5417 22.845C27.3233 21.4767 26.4317 20.3267 23.7883 19.2533C22.8683 18.8217 21.8467 18.5233 21.54 17.83C21.4267 17.4167 21.41 17.1933 21.4833 16.9483C21.6717 16.1417 22.6283 15.9 23.3783 16.1233C23.8667 16.2733 24.3167 16.6483 24.5983 17.25C25.89 16.405 25.89 16.405 26.7917 15.8433C26.4533 15.32 26.285 15.0917 26.06 14.8667C25.2717 13.9867 24.2217 13.5367 22.5167 13.575L21.6367 13.6867C20.7917 13.8933 19.985 14.345 19.4983 14.9433C18.0733 16.5567 18.485 19.3683 20.21 20.5333C21.915 21.8083 24.4117 22.0883 24.73 23.2883C25.03 24.7517 23.6433 25.22 22.2717 25.0517C21.26 24.825 20.6967 24.32 20.0783 23.3817L17.7917 24.695C18.0533 25.2933 18.3533 25.5567 18.8033 26.0817C20.9783 28.275 26.4167 28.1633 27.3917 24.825C27.4267 24.7133 27.6917 23.945 27.485 22.7633L27.5417 22.845ZM16.3133 13.7883H13.5033C13.5033 16.21 13.4917 18.6183 13.4917 21.045C13.4917 22.585 13.57 23.9983 13.3183 24.4333C12.9067 25.295 11.8417 25.185 11.36 25.0317C10.865 24.7883 10.6133 24.45 10.3217 23.9633C10.2433 23.8333 10.185 23.72 10.1633 23.72L7.88333 25.1267C8.265 25.915 8.82167 26.5917 9.54 27.0217C10.6083 27.66 12.0433 27.8667 13.5467 27.53C14.5267 27.2467 15.3717 26.665 15.81 25.765C16.45 24.6033 16.3133 23.1767 16.3083 21.5833C16.3217 19.015 16.3083 16.445 16.3083 13.8583L16.3133 13.7883Z" fill="white"/>
</svg>
