<svg width="33" height="32" viewBox="0 0 33 32" fill="none" xmlns="http://www.w3.org/2000/svg">
<path d="M0 0H33V32H0V0ZM30.2958 24.368C30.0557 22.9084 29.0748 21.6818 26.1672 20.5369C25.1552 20.0764 24.0313 19.7582 23.694 19.0187C23.5693 18.5778 23.551 18.3396 23.6317 18.0782C23.8388 17.2178 24.8912 16.96 25.7162 17.1982C26.2533 17.3582 26.7483 17.7582 27.0582 18.4C28.479 17.4987 28.479 17.4987 29.4708 16.8996C29.0987 16.3413 28.9135 16.0978 28.666 15.8578C27.7988 14.9191 26.6438 14.4391 24.7683 14.48L23.8003 14.5991C22.8708 14.8196 21.9835 15.3013 21.4482 15.9396C19.8807 17.6604 20.3335 20.6596 22.231 21.9022C24.1065 23.2622 26.8528 23.5609 27.203 24.8409C27.533 26.4018 26.0077 26.9013 24.4988 26.7218C23.386 26.48 22.7663 25.9413 22.0862 24.9404L19.5708 26.3413C19.8587 26.9796 20.1887 27.2604 20.6837 27.8204C23.0762 30.16 29.0583 30.0409 30.1308 26.48C30.1693 26.3609 30.4608 25.5413 30.2335 24.2809L30.2958 24.368ZM17.9447 14.7076H14.8537C14.8537 17.2907 14.8408 19.8596 14.8408 22.448C14.8408 24.0907 14.927 25.5982 14.6502 26.0622C14.1973 26.9813 13.0258 26.864 12.496 26.7004C11.9515 26.4409 11.6747 26.08 11.3538 25.5609C11.2677 25.4222 11.2035 25.3013 11.1797 25.3013L8.67167 26.8018C9.0915 27.6427 9.70383 28.3644 10.494 28.8231C11.6692 29.504 13.2477 29.7244 14.9013 29.3653C15.9793 29.0631 16.9088 28.4427 17.391 27.4827C18.095 26.2436 17.9447 24.7218 17.9392 23.0222C17.9538 20.2827 17.9392 17.5413 17.9392 14.7822L17.9447 14.7076Z" fill="white"/>
</svg>
