<svg xmlns="http://www.w3.org/2000/svg" xmlns:xlink="http://www.w3.org/1999/xlink" width="60" zoomAndPan="magnify" viewBox="0 0 45 42" height="56" preserveAspectRatio="xMidYMid meet" version="1.0"><defs><clipPath id="533e8f9c69"><path d="M 1.988281 0 L 43.011719 0 L 43.011719 41.023438 L 1.988281 41.023438 Z M 1.988281 0 " clip-rule="nonzero"/></clipPath></defs><g clip-path="url(#533e8f9c69)"><path fill="#181924" d="M 43.011719 34.785156 C 43.011719 38.226562 40.222656 41.019531 36.777344 41.019531 L 8.222656 41.019531 C 4.78125 41.019531 1.988281 38.226562 1.988281 34.785156 L 1.988281 6.230469 C 1.988281 2.789062 4.78125 -0.00390625 8.222656 -0.00390625 L 36.777344 -0.00390625 C 40.222656 -0.00390625 43.011719 2.789062 43.011719 6.230469 Z M 43.011719 34.785156 " fill-opacity="1" fill-rule="nonzero"/></g><path fill="#e8e8e8" d="M 18.210938 14.632812 C 18.210938 15.039062 18.132812 15.429688 17.976562 15.804688 C 17.820312 16.179688 17.601562 16.511719 17.3125 16.800781 C 17.027344 17.085938 16.695312 17.308594 16.320312 17.464844 C 15.945312 17.621094 15.550781 17.699219 15.144531 17.699219 C 14.738281 17.699219 14.347656 17.621094 13.972656 17.464844 C 13.597656 17.308594 13.265625 17.085938 12.980469 16.800781 C 12.691406 16.511719 12.46875 16.179688 12.316406 15.804688 C 12.160156 15.429688 12.082031 15.039062 12.082031 14.632812 C 12.082031 14.226562 12.160156 13.835938 12.316406 13.460938 C 12.46875 13.085938 12.691406 12.753906 12.980469 12.464844 C 13.265625 12.179688 13.597656 11.957031 13.972656 11.800781 C 14.347656 11.644531 14.738281 11.570312 15.144531 11.570312 C 15.550781 11.570312 15.945312 11.644531 16.320312 11.800781 C 16.695312 11.957031 17.027344 12.179688 17.3125 12.464844 C 17.601562 12.753906 17.820312 13.085938 17.976562 13.460938 C 18.132812 13.835938 18.210938 14.226562 18.210938 14.632812 Z M 18.210938 14.632812 " fill-opacity="1" fill-rule="nonzero"/><path fill="#e8e8e8" d="M 12.503906 19.957031 L 17.769531 19.957031 L 17.769531 36.894531 L 12.503906 36.894531 Z M 12.503906 19.957031 " fill-opacity="1" fill-rule="nonzero"/><path fill="#e8e8e8" d="M 21.082031 19.957031 L 26.089844 19.957031 L 26.089844 36.894531 L 21.082031 36.894531 Z M 21.082031 19.957031 " fill-opacity="1" fill-rule="nonzero"/><path fill="#e8e8e8" d="M 21.296875 28.972656 L 26.308594 28.972656 L 26.308594 36.894531 L 21.296875 36.894531 Z M 21.296875 28.972656 " fill-opacity="1" fill-rule="nonzero"/><path fill="#e8e8e8" d="M 26.308594 28.972656 C 26.308594 28.972656 26.230469 26.777344 26.808594 25.636719 C 26.808594 25.636719 27.386719 24.230469 29.210938 24.21875 C 29.210938 24.21875 31.34375 23.847656 31.957031 25.964844 C 31.957031 25.964844 32.1875 27.140625 32.1875 27.636719 C 32.1875 28.136719 32.207031 36.894531 32.207031 36.894531 L 37.453125 36.894531 L 37.453125 27.191406 C 37.453125 27.191406 37.835938 21.710938 34.546875 20.210938 C 34.546875 20.210938 29.136719 17.78125 26.203125 22.242188 C 26.203125 22.242188 25.5625 22.683594 25.472656 21.445312 C 25.382812 20.210938 24.632812 23.34375 24.613281 23.410156 C 24.589844 23.476562 25.472656 29.660156 25.472656 29.660156 Z M 26.308594 28.972656 " fill-opacity="1" fill-rule="nonzero"/></svg>