<svg width="50" height="38" viewBox="0 0 50 38" fill="none" xmlns="http://www.w3.org/2000/svg">
<path d="M23.581 28.3528C23.5341 28.4372 23.5575 28.3997 23.581 28.3528V28.3528ZM43.0443 21.5559C41.4729 21.5554 39.9226 21.9163 38.513 22.6106C38.0521 21.6809 37.5755 20.8684 37.4974 20.259C37.4036 19.5481 37.3021 19.1262 37.4114 18.2825C37.5208 17.4387 38.013 16.2434 38.0052 16.1575C37.9974 16.0715 37.8958 15.6419 36.888 15.634C35.8802 15.6262 35.013 15.8294 34.9122 16.095C34.7343 16.5804 34.5958 17.0794 34.4982 17.5872C34.3185 18.5012 32.4833 21.7669 31.4443 23.47C31.1005 22.8059 30.8114 22.22 30.7489 21.7512C30.6552 21.0403 30.5536 20.6184 30.663 19.7747C30.7724 18.9309 31.2646 17.7356 31.2568 17.6497C31.2489 17.5637 31.1474 17.134 30.1403 17.1262C29.1333 17.1184 28.2653 17.3215 28.1638 17.5872C28.0622 17.8528 27.9528 18.4778 27.7497 19.0794C27.5466 19.6809 25.1021 25.1184 24.4622 26.5325C24.1341 27.2512 23.8528 27.8294 23.6497 28.22C23.6185 28.2825 23.595 28.3215 23.5794 28.3528C23.6028 28.3137 23.6185 28.2747 23.6185 28.2903C23.4466 28.6262 23.345 28.8137 23.345 28.8137V28.8215C23.2122 29.0715 23.0638 29.2981 22.9935 29.2981C22.9466 29.2981 22.845 28.6419 23.0169 27.7434C23.3841 25.8528 24.2513 22.9153 24.2435 22.8137C24.2357 22.759 24.4075 22.2512 23.6732 21.9778C22.9622 21.72 22.7044 22.1497 22.6419 22.1497C22.5794 22.1497 22.5325 22.3059 22.5325 22.3059C22.5325 22.3059 23.3216 18.9934 21.0177 18.9934C19.5802 18.9934 17.5802 20.5715 16.5974 22.0012C15.9802 22.3372 14.6443 23.0637 13.238 23.8372C12.6989 24.134 12.1443 24.4387 11.6208 24.7278C11.5818 24.6887 11.5505 24.6497 11.5114 24.6106C8.71535 21.6262 3.55285 19.5169 3.7716 15.509C3.84972 14.0481 4.35753 10.2122 13.6989 5.55592C21.3552 1.74342 27.4763 2.79029 28.5302 5.11842C30.0458 8.43873 25.2575 14.6184 17.3068 15.509C14.2763 15.845 12.6833 14.6731 12.2849 14.2356C11.8708 13.7747 11.8083 13.7512 11.6521 13.8372C11.3943 13.9778 11.5583 14.384 11.6521 14.6262C11.8864 15.2434 12.863 16.3372 14.5263 16.884C15.9872 17.3606 19.5403 17.6262 23.8364 15.9622C28.663 14.1028 32.42 8.92311 31.3185 4.58717C30.1966 0.180919 22.8903 -1.26439 15.9818 1.18873C11.8653 2.64967 7.41378 4.94654 4.21144 7.93873C0.407534 11.5012 -0.20106 14.6028 0.0489404 15.8997C0.938784 20.5012 7.28097 23.5012 9.81925 25.72C9.69425 25.7903 9.57707 25.8528 9.46769 25.9153C8.19503 26.5481 3.35988 29.0794 2.14972 31.7512C0.782534 34.7825 2.37628 36.9544 3.42238 37.2512C6.68722 38.1575 10.0302 36.5247 11.8263 33.845C13.6224 31.1653 13.4044 27.6653 12.5763 26.0715C12.5685 26.0481 12.5528 26.0325 12.545 26.009C12.8732 25.8137 13.2091 25.6184 13.545 25.4231C14.1927 25.0403 14.8255 24.6887 15.3802 24.384C15.0677 25.2278 14.8411 26.2434 14.7239 27.7122C14.5833 29.4309 15.2943 31.6575 16.2161 32.5325C16.6224 32.9153 17.1138 32.9231 17.4185 32.9231C18.4966 32.9231 18.981 32.0325 19.5193 30.97C20.1833 29.6731 20.7693 28.1653 20.7693 28.1653C20.7693 28.1653 20.0349 32.2434 22.0427 32.2434C22.7763 32.2434 23.5107 31.2981 23.8396 30.8137V30.8215C23.8396 30.8215 23.8552 30.7903 23.8943 30.7278C23.9724 30.6106 24.0114 30.5403 24.0114 30.5403V30.5169C24.3083 30.009 24.9568 28.845 25.9325 26.9231C27.1982 24.4387 28.4083 21.3372 28.4083 21.3372C28.5252 22.019 28.687 22.6923 28.8927 23.3528C29.1114 24.095 29.5724 24.9075 29.9396 25.6965C29.6427 26.1028 29.463 26.3372 29.463 26.3372C29.4635 26.3432 29.4663 26.3488 29.4708 26.3528C29.2364 26.6653 28.9708 27.0012 28.6974 27.3294C27.6982 28.5169 26.5099 29.8762 26.3536 30.2669C26.1661 30.7278 26.213 31.0715 26.5724 31.3372C26.838 31.5403 27.3068 31.5715 27.7982 31.5325C28.6966 31.47 29.3294 31.2512 29.6341 31.1106C30.1958 30.9092 30.7267 30.6305 31.2114 30.2825C32.188 29.5637 32.7818 28.5325 32.7271 27.1731C32.6958 26.4231 32.4536 25.6731 32.1567 24.97C32.2427 24.845 32.3364 24.7122 32.4224 24.5794C33.9685 22.3215 35.1638 19.8434 35.1638 19.8434C35.2807 20.5252 35.4425 21.1986 35.6482 21.859C35.8357 22.4919 36.2021 23.1872 36.538 23.8669C35.0857 25.0465 34.1872 26.4137 33.8747 27.3122C33.2966 28.9762 33.7497 29.7262 34.6013 29.8981C34.9841 29.9762 35.531 29.7965 35.9372 29.6247C36.5405 29.4237 37.1094 29.1312 37.6239 28.7575C38.6005 28.0387 39.545 27.0309 39.4825 25.6637C39.4591 25.0465 39.2872 24.4294 39.0607 23.8356C40.2872 23.32 41.8802 23.0387 43.9114 23.2731C48.2614 23.7809 49.113 26.4997 48.9489 27.6325C48.7849 28.7653 47.8708 29.3981 47.5661 29.5856C47.2614 29.7731 47.1677 29.8434 47.1911 29.984C47.2302 30.1872 47.3708 30.1794 47.6286 30.1325C47.988 30.07 49.9091 29.2106 49.995 27.109C50.12 24.4528 47.5661 21.5309 43.0419 21.5544L43.0443 21.5559ZM9.51457 32.8606C8.07785 34.4309 6.06222 35.0247 5.19582 34.5247C4.26613 33.984 4.63332 31.6731 6.40597 29.9997C7.4841 28.984 8.87394 28.0465 9.79582 27.4684C10.0068 27.3434 10.3114 27.1559 10.6864 26.9294C10.7489 26.8903 10.7802 26.8747 10.7802 26.8747C10.8505 26.8278 10.9286 26.7887 11.0068 26.7419C11.6544 29.1169 11.0302 31.2106 9.51457 32.859V32.8606ZM20.0114 25.72C19.5114 26.9465 18.4575 30.0715 17.8169 29.9075C17.27 29.7669 16.9341 27.384 17.7075 25.0403C18.0982 23.8606 18.9263 22.4544 19.4185 21.9075C20.2068 21.0247 21.0739 20.7434 21.2771 21.095C21.5505 21.5559 20.3239 24.9544 20.0114 25.72ZM28.6833 29.8606C28.4724 29.97 28.2771 30.0403 28.1833 29.9856C28.113 29.9465 28.2693 29.7981 28.2693 29.7981C28.2693 29.7981 29.3552 28.634 29.7849 28.1028C30.0349 27.7903 30.3239 27.4231 30.6357 27.0169C30.6357 27.0559 30.6435 27.095 30.6435 27.1419C30.6333 28.5403 29.2903 29.4856 28.681 29.8606H28.6833ZM35.3693 28.3372C35.213 28.2278 35.2364 27.8606 35.7599 26.72C35.963 26.2747 36.431 25.5247 37.2443 24.8059C37.3363 25.078 37.3863 25.3625 37.3927 25.6497C37.3849 27.4075 36.1263 28.0637 35.3693 28.3372Z" fill="white"/>
</svg>
