<svg width="40" height="40" viewBox="0 0 40 40" fill="none" xmlns="http://www.w3.org/2000/svg">
<g clip-path="url(#clip0_29_65)">
<path fill-rule="evenodd" clip-rule="evenodd" d="M9.10332 6.73335C8.7274 6.72765 8.35226 6.76908 7.98665 6.85668V6.92001H8.04832C8.26498 7.36501 8.64832 7.65335 8.91665 8.03668L9.53665 9.33835L9.59998 9.27668C9.98332 9.00668 10.16 8.57335 10.1583 7.91168C10.0033 7.75001 9.97998 7.54668 9.84665 7.35335C9.66998 7.09668 9.32665 6.95001 9.10332 6.73335ZM39.1316 38.5617C39.4233 38.7767 39.62 39.11 40 39.245V39.1817C39.8 38.9283 39.75 38.5783 39.5666 38.3133C39.2966 38.0467 39.0278 37.7778 38.76 37.5067C37.9491 36.46 36.9869 35.5399 35.905 34.7767C35.0583 34.1683 33.1566 33.345 32.8033 32.3583L32.74 32.295C33.3416 32.2283 34.0466 32.01 34.6016 31.8617C35.535 31.6117 36.3683 31.675 37.3316 31.4283L38.635 31.055V30.805C38.1483 30.305 37.8016 29.645 37.27 29.1933C35.88 28.01 34.365 26.8267 32.8033 25.8433C31.9366 25.295 30.8666 24.9417 29.9483 24.4767C29.64 24.3217 29.0983 24.24 28.895 23.9817C28.4116 23.365 28.15 22.5867 27.7783 21.8717C27 20.3717 26.2333 18.7333 25.545 17.155C25.0733 16.08 24.7667 15.02 24.1783 14.055C21.3617 9.42168 18.3283 6.62668 13.6317 3.87834C12.6317 3.29501 11.4283 3.06335 10.1583 2.76168L8.10998 2.63835C7.69332 2.46335 7.25998 1.95501 6.86998 1.70668C5.31332 0.723345 1.31998 -1.41499 0.169984 1.39668C-0.55835 3.17168 1.25665 4.90335 1.90665 5.80168C2.36165 6.43335 2.94498 7.14001 3.27165 7.85001C3.48498 8.31668 3.52165 8.78335 3.70498 9.27668C4.15665 10.4933 4.54832 11.8133 5.13165 12.9367C5.42832 13.505 5.75332 14.1033 6.12498 14.6117C6.35498 14.9233 6.74498 15.0617 6.80665 15.5433C6.42332 16.0783 6.40332 16.91 6.18832 17.59C5.21832 20.6483 5.58332 24.4483 6.99498 26.7117C7.42665 27.405 8.44498 28.895 9.84665 28.3233C11.0733 27.8233 10.8 26.2767 11.15 24.9117C11.2283 24.6017 11.1817 24.3733 11.3367 24.1667V24.2283L12.4533 26.4617C13.28 27.7933 14.7467 29.185 15.99 30.1233C16.6333 30.61 17.14 31.4517 17.975 31.7367V31.6733H17.9133C17.75 31.4233 17.4967 31.3183 17.2933 31.115C16.7774 30.6138 16.2999 30.0745 15.865 29.5017C14.735 27.9683 13.7367 26.2883 12.8267 24.54C12.3917 23.7033 12.0133 22.7833 11.6466 21.9333C11.505 21.605 11.5067 21.11 11.2133 20.94C10.8117 21.5633 10.22 22.0667 9.90998 22.8017C9.41332 23.9767 9.34832 25.41 9.16498 26.8967C9.05665 26.935 9.10498 26.9083 9.03998 26.9583C8.17665 26.75 7.87332 25.86 7.55165 25.0967C6.73998 23.1683 6.58832 20.06 7.30332 17.8383C7.48832 17.2633 8.32498 15.4533 7.98665 14.9217C7.82332 14.3917 7.29165 14.0867 6.99332 13.6817C6.60489 13.1369 6.27211 12.5546 5.99998 11.9433C5.33665 10.44 5.02498 8.75001 4.32498 7.22834C3.99165 6.50168 3.42498 5.76668 2.95998 5.12001C2.44665 4.40335 1.86998 3.87668 1.47165 3.01001C1.32998 2.70168 1.13665 2.21001 1.34665 1.89335C1.41332 1.68001 1.50832 1.59001 1.71998 1.52168C2.07998 1.24335 3.08165 1.61335 3.45665 1.76835C4.45165 2.18168 5.28165 2.57501 6.12332 3.13501C6.52832 3.40168 6.93832 3.92168 7.42665 4.06501H7.98498C8.85998 4.26501 9.83832 4.12668 10.6533 4.37501C12.095 4.81335 13.3867 5.49501 14.5617 6.23668C18.1383 8.49501 21.0617 11.7083 23.0617 15.5433C23.3833 16.16 23.5233 16.75 23.8067 17.405C24.3783 18.725 25.0983 20.0833 25.6666 21.375C26.2333 22.6633 26.7883 23.9633 27.59 25.035C28.0117 25.5983 29.6416 25.9017 30.3833 26.215C30.9016 26.4333 31.7516 26.6633 32.2433 26.9583C33.1833 27.525 34.0933 28.2 34.9733 28.82C35.4133 29.1317 36.7683 29.8117 36.835 30.37C34.6516 30.3133 32.985 30.515 31.5616 31.1167C31.1566 31.2867 30.5116 31.2917 30.445 31.7983C30.6666 32.0317 30.7016 32.3817 30.8783 32.6667C31.2183 33.2167 31.7933 33.955 32.305 34.3417C32.8666 34.765 33.4433 35.2167 34.0433 35.5833C35.11 36.2333 36.3033 36.6067 37.33 37.2583C37.9383 37.6433 38.5416 38.1267 39.1316 38.5617Z" fill="white"/>
</g>
<defs>
<clipPath id="clip0_29_65">
<rect width="40" height="40" fill="white"/>
</clipPath>
</defs>
</svg>
