<svg width="40" height="34" viewBox="0 0 40 34" fill="none" xmlns="http://www.w3.org/2000/svg">
<path d="M38.3333 15.3333H30C29.558 15.3333 29.134 15.5088 28.8215 15.8214C28.5089 16.134 28.3333 16.5579 28.3333 16.9999V31.9999C28.3333 32.4419 28.5089 32.8659 28.8215 33.1784C29.134 33.491 29.558 33.6666 30 33.6666H38.3333C38.7754 33.6666 39.1993 33.491 39.5118 33.1784C39.8244 32.8659 40 32.4419 40 31.9999V16.9999C40 16.5579 39.8244 16.134 39.5118 15.8214C39.1993 15.5088 38.7754 15.3333 38.3333 15.3333ZM38.3333 30.3333H30V18.6666H38.3333V30.3333ZM33.3333 0.333252H3.33333C1.48333 0.333252 0 1.81659 0 3.66659V23.6666C0 24.5506 0.351189 25.3985 0.976311 26.0236C1.60143 26.6487 2.44928 26.9999 3.33333 26.9999H15V30.3333H11.6667V33.6666H25V30.3333H21.6667V26.9999H25V23.6666H3.33333V3.66659H33.3333V11.9999H36.6667V3.66659C36.6667 2.78253 36.3155 1.93468 35.6904 1.30956C35.0652 0.684441 34.2174 0.333252 33.3333 0.333252Z" fill="white"/>
</svg>
