<svg width="37" height="36" viewBox="0 0 37 36" fill="none" xmlns="http://www.w3.org/2000/svg">
<path d="M34.6667 17.9999C34.6667 8.79492 27.205 1.33325 18 1.33325C8.795 1.33325 1.33334 8.79492 1.33334 17.9999C1.33334 27.2049 8.795 34.6666 18 34.6666" stroke="white" stroke-width="2.5" stroke-linecap="round" stroke-linejoin="round"/>
<path d="M19.6667 1.4165C19.6667 1.4165 24.6667 7.99984 24.6667 17.9998M16.3333 34.5832C16.3333 34.5832 11.3333 27.9998 11.3333 17.9998C11.3333 7.99984 16.3333 1.4165 16.3333 1.4165M2.38334 23.8332H18M2.38334 12.1665H33.6167" stroke="white" stroke-width="2.5" stroke-linecap="round" stroke-linejoin="round"/>
<path d="M34.465 27.8616C35.2883 28.3682 35.2367 29.5999 34.39 29.6966L30.1117 30.1816L28.1933 34.0349C27.8133 34.7999 26.6383 34.4249 26.4433 33.4782L24.3517 23.2849C24.1867 22.4849 24.9067 21.9816 25.6017 22.4099L34.465 27.8616Z" stroke="white" stroke-width="2.5"/>
</svg>
