<svg width="61" height="60" viewBox="0 0 61 60" fill="none" xmlns="http://www.w3.org/2000/svg">
<path d="M47.9583 12.275C45.6659 9.96028 42.9358 8.12493 39.927 6.87592C36.9182 5.62691 33.691 4.98922 30.4333 5.00001C16.7833 5.00001 5.65825 16.125 5.65825 29.775C5.65825 34.15 6.80825 38.4 8.95825 42.15L5.45825 55L18.5833 51.55C22.2083 53.525 26.2833 54.575 30.4333 54.575C44.0833 54.575 55.2083 43.45 55.2083 29.8C55.2083 23.175 52.6333 16.95 47.9583 12.275ZM30.4333 50.375C26.7333 50.375 23.1083 49.375 19.9333 47.5L19.1833 47.05L11.3833 49.1L13.4583 41.5L12.9583 40.725C10.9021 37.4427 9.81056 33.6482 9.80825 29.775C9.80825 18.425 19.0583 9.17501 30.4083 9.17501C35.9083 9.17501 41.0833 11.325 44.9583 15.225C46.8773 17.1347 48.3981 19.4064 49.4323 21.9083C50.4666 24.4103 50.9937 27.0927 50.9833 29.8C51.0333 41.15 41.7833 50.375 30.4333 50.375ZM41.7333 34.975C41.1083 34.675 38.0583 33.175 37.5083 32.95C36.9333 32.75 36.5333 32.65 36.1083 33.25C35.6833 33.875 34.5083 35.275 34.1583 35.675C33.8083 36.1 33.4333 36.15 32.8083 35.825C32.1833 35.525 30.1833 34.85 27.8333 32.75C25.9833 31.1 24.7583 29.075 24.3833 28.45C24.0333 27.825 24.3333 27.5 24.6583 27.175C24.9333 26.9 25.2833 26.45 25.5833 26.1C25.8833 25.75 26.0083 25.475 26.2083 25.075C26.4083 24.65 26.3083 24.3 26.1583 24C26.0083 23.7 24.7583 20.65 24.2583 19.4C23.7583 18.2 23.2333 18.35 22.8583 18.325H21.6583C21.2333 18.325 20.5833 18.475 20.0083 19.1C19.4583 19.725 17.8583 21.225 17.8583 24.275C17.8583 27.325 20.0833 30.275 20.3833 30.675C20.6833 31.1 24.7583 37.35 30.9583 40.025C32.4333 40.675 33.5833 41.05 34.4833 41.325C35.9583 41.8 37.3083 41.725 38.3833 41.575C39.5833 41.4 42.0582 40.075 42.5582 38.625C43.0832 37.175 43.0833 35.95 42.9083 35.675C42.7333 35.4 42.3583 35.275 41.7333 34.975Z" fill="#111111"/>
</svg>
